<?xml version="1.0" encoding="iso-8859-1"?>
<!-- Generator: Adobe Illustrator 19.0.0, SVG Export Plug-In . SVG Version: 6.00 Build 0)  -->
<svg version="1.1" id="Layer_1" xmlns="http://www.w3.org/2000/svg" xmlns:xlink="http://www.w3.org/1999/xlink" x="0px" y="0px"
	 viewBox="0 0 488 488" style="enable-background:new 0 0 488 488;" xml:space="preserve" fill="white">
<g transform="translate(0 -540.36)">
	<g>
		<g>
			<path d="M336.485,713.314c0.5-2.6,0.9-5.401,0.9-8.401c0-29.104-25.996-52.808-57.891-52.808
				c-13.898,0-27.696,5.101-37.994,13.602c-10.698-8.701-24.296-13.602-38.394-13.602c-15.098,0-29.395,5.301-40.094,15.102
				c-10.998,10.001-16.997,23.403-16.997,37.706c0,3.801,0.4,7.501,1.1,10.902c-15.898,9.601-25.796,26.104-25.796,44.106
				c0,9.601,2.3,18.203,7.099,26.104c-4.599,7.801-7.099,16.802-7.099,25.904c0,18.103,9.099,34.205,24.896,44.206
				c-0.2,2.7-0.2,5.301-0.2,7.801c0,14.302,6.099,27.704,16.997,37.706c10.698,9.701,24.896,15.102,40.094,15.102
				c14.098,0,27.596-4.901,38.394-13.602c10.398,8.601,24.096,13.602,37.994,13.602c31.895,0,57.891-23.703,57.891-52.708
				c0-1.8-0.1-3.601-0.3-5.301c18.497-9.201,30.395-27.104,30.395-46.707c0-9.101-2.5-18.003-7.099-25.904
				c4.799-7.901,7.099-16.502,7.099-26.104C367.481,740.118,355.183,722.015,336.485,713.314z M340.585,792.225
				c4.599,5.701,6.999,12.502,6.999,19.703c0,13.602-9.998,26.104-24.796,31.005c-4.799,1.6-7.699,6.501-6.699,11.502
				c0.6,3.401,1.3,6.701,1.3,9.501c0,18.103-16.997,32.805-37.894,32.805c-11.598,0-23.396-5.401-29.995-13.802
				c-1.8-2.3-4.599-3.701-7.599-3.801c-0.1,0-0.1,0-0.2,0l0,0c-2.9,0-5.699,1.2-7.399,3.701
				c-7.699,8.901-18.997,14.102-30.995,14.102c-20.497,0-37.094-14.702-37.094-32.805c0-3.6,0-7.301,0.8-9.301
				c2-4.901-0.2-10.502-4.999-12.802c-12.798-6.101-20.497-17.303-20.497-30.004c0-7.201,2.4-14.002,6.999-19.703
				c3-3.701,3-8.901,0-12.602c-4.799-5.901-6.999-12.202-6.999-19.703c0-12.702,8.399-24.404,21.497-29.704
				c2.5-1,4.499-3,5.499-5.501s1-5.301-0.1-7.801c-1.6-3.601-2.3-7.401-2.3-12.102c0-18.103,16.697-32.805,37.094-32.805
				c11.898,0,23.196,5.101,30.995,14.102c2,2.3,4.799,3.601,7.799,3.5c3-0.1,5.699-1.5,7.599-3.801
				c6.699-8.401,18.397-13.802,29.995-13.802c20.897,0,37.894,14.702,37.894,32.805c0,3.701-1.2,7.201-2.6,11.302
				c-0.8,2.6-0.6,5.501,0.7,7.901s3.499,4.201,6.199,4.901c15.198,4.101,25.796,16.802,25.796,30.905
				c0,7.501-2.2,13.702-6.999,19.703C337.585,783.324,337.585,788.525,340.585,792.225z"/>
			<path d="M261.797,767.122l-21.397,7.201l13.198-37.205c1.8-5.201-0.9-11.002-6.099-12.802c-5.199-1.8-10.998,0.9-12.798,6.101
				l-20.097,56.608c-1.3,3.701-0.4,7.701,2.3,10.401c2.7,2.8,6.699,3.701,10.298,2.5l21.297-7.201l-13.898,38.706
				c-1.9,5.201,0.8,10.902,5.999,12.802c1.1,0.4,2.3,0.6,3.399,0.6l0,0c4.099,0,7.899-2.6,9.599-6.701l20.797-58.109
				c1.3-3.601,0.4-7.701-2.3-10.402C269.396,766.822,265.397,765.922,261.797,767.122z"/>
			<polygon points="244,630.702 244,630.702 244,630.702 			"/>
			<path d="M227.603,597.897c3,2.5,7.099,3,10.598,1.3l1.3-0.6l-5.199,19.603c-1.4,5.301,1.8,10.802,7.099,12.202
				c0.9,0.2,1.7,0.3,2.6,0.3c4.399,0,8.499-3,9.498-7.501l10.798-40.506c1-3.801-0.3-7.801-3.299-10.302s-7.199-3-10.698-1.3
				l-1.6,0.8l4.799-19.103c1.4-5.301-1.8-10.702-7.199-12.102c-5.299-1.4-10.698,1.8-12.098,7.201l-9.998,39.806
				C223.303,591.496,224.603,595.397,227.603,597.897z"/>
			<path d="M53.43,609.199L71.327,620.5c-3.299,1.3-5.699,4.401-6.199,8.001c-0.5,3.901,1.3,7.701,4.599,9.801l35.494,22.203
				c1.7,1,3.499,1.5,5.299,1.5c3.299,0,6.599-1.7,8.499-4.701c2.9-4.701,1.5-10.902-3.199-13.802l-16.897-10.602
				c3.299-1.3,5.599-4.301,6.099-7.901c0.5-3.901-1.3-7.701-4.599-9.801l-36.294-22.903c-4.699-3-10.798-1.6-13.798,3.1
				C47.331,600.097,48.731,606.198,53.43,609.199z"/>
			<path d="M105.322,908.342l-36.294,22.903c-3.399,2.1-5.099,5.901-4.599,9.801c0.5,3.601,2.9,6.601,6.299,7.901L53.63,959.35
				c-4.699,2.8-6.199,9.001-3.299,13.702c1.8,3.1,5.099,4.801,8.499,4.801v0c1.7,0,3.499-0.4,5.299-1.3l36.294-22.203
				c3.399-2,5.199-5.901,4.699-9.801c-0.5-3.801-3.099-7.001-6.699-8.201l17.597-11.102c4.699-3,6.099-9.101,3.099-13.802
				C116.12,906.742,110.021,905.342,105.322,908.342z"/>
			<path d="M260.997,970.051c-3-2.5-7.199-3-10.698-1.3l-1.6,0.8l4.799-19.103c1.4-5.301-1.8-10.702-7.199-12.102
				c-5.299-1.4-10.698,1.8-12.098,7.201l-9.998,39.806c-0.9,3.801,0.4,7.701,3.399,10.202c3,2.5,7.099,3,10.598,1.3l1.3-0.6
				l-5.199,19.603c-1.4,5.301,1.8,10.802,7.099,12.202c0.9,0.2,1.7,0.3,2.6,0.3c4.399,0,8.499-3,9.498-7.501l10.798-40.506
				C265.297,976.552,263.997,972.552,260.997,970.051z"/>
			<polygon points="244,1028.36 244,1028.36 244,1028.36 			"/>
			<path d="M378.279,662.006L378.279,662.006c1.8,0,3.699-0.5,5.299-1.6l35.494-22.203c3.299-2,5.099-5.901,4.599-9.801
				c-0.5-3.801-3.099-6.901-6.699-8.101l17.597-11.002c4.699-3,6.099-9.101,3.099-13.802c-3-4.701-9.099-6.001-13.798-3.1
				l-36.294,22.903c-3.399,2.1-5.099,5.901-4.599,9.801c0.6,3.701,3.099,6.801,6.599,8.001l-16.597,10.401
				c-4.699,2.9-6.099,9.101-3.2,13.802C371.68,660.306,374.979,662.006,378.279,662.006z"/>
			<path d="M434.47,959.35l-16.597-10.401c3.499-1.2,6.099-4.301,6.599-8.001c0.5-3.901-1.3-7.701-4.599-9.801l-36.294-22.903
				c-4.699-3-10.798-1.6-13.798,3.1s-1.6,10.802,3.1,13.802l17.597,11.102c-3.599,1.2-6.199,4.301-6.699,8.101
				c-0.5,3.901,1.3,7.701,4.599,9.801l35.494,22.203c1.7,1,3.499,1.5,5.299,1.5l0,0c3.399,0,6.599-1.6,8.499-4.701
				C440.569,968.451,439.169,962.25,434.47,959.35z"/>
		</g>
	</g>
</g>
<g>
</g>
<g>
</g>
<g>
</g>
<g>
</g>
<g>
</g>
<g>
</g>
<g>
</g>
<g>
</g>
<g>
</g>
<g>
</g>
<g>
</g>
<g>
</g>
<g>
</g>
<g>
</g>
<g>
</g>
</svg>
