<svg xmlns="http://www.w3.org/2000/svg" xmlns:xlink="http://www.w3.org/1999/xlink" version="1.1" style="" xml:space="preserve" width="277.112" height="277.112"><rect id="backgroundrect" width="100%" height="100%" x="0" y="0" fill="none" stroke="none"/>
















<g class="currentLayer" style=""><title>Layer 1</title><g id="svg_1" class="selected" fill="#ffffff" fill-opacity="1">
	<path d="M266.339,124.055L144.92,2.636c-3.515-3.515-9.213-3.515-12.728,0L91,43.828v-7.232c0-4.971-4.029-9-9-9H54.928   c-4.971,0-9,4.029-9,9v52.305l-35.154,35.154c-3.515,3.515-3.515,9.213,0,12.728c3.515,3.515,9.213,3.515,12.728,0L138.556,21.728   l115.055,115.055c1.757,1.757,4.061,2.636,6.364,2.636s4.606-0.879,6.364-2.636C269.854,133.268,269.854,127.57,266.339,124.055z    M63.928,45.595H73v16.232l-9.073,9.073V45.595z" id="svg_2" fill="#ffffff" fill-opacity="1"/>
	<path d="M144.92,47.058c-3.515-3.515-9.213-3.515-12.728,0L32.084,147.166c-1.688,1.688-2.636,3.977-2.636,6.364v114.582   c0,4.971,4.029,9,9,9h73.369c4.971,0,9-4.029,9-9v-55.826h35.479l0,55.826c0,4.971,4.029,9,9,9h73.368c4.971,0,9-4.029,9-9V153.53   c0-2.387-0.948-4.676-2.636-6.364L144.92,47.058z M229.664,259.112h-55.368l0-55.826c0-4.971-4.029-9-9-9h-53.479   c-4.971,0-9,4.029-9,9v55.826H47.448V157.258l91.108-91.108l91.108,91.108V259.112z" id="svg_3" fill="#ffffff" fill-opacity="1"/>
</g><g id="svg_4">
</g><g id="svg_5">
</g><g id="svg_6">
</g><g id="svg_7">
</g><g id="svg_8">
</g><g id="svg_9">
</g><g id="svg_10">
</g><g id="svg_11">
</g><g id="svg_12">
</g><g id="svg_13">
</g><g id="svg_14">
</g><g id="svg_15">
</g><g id="svg_16">
</g><g id="svg_17">
</g><g id="svg_18">
</g></g></svg>